<svg id="svg" version="1.1" xmlns="http://www.w3.org/2000/svg" xmlns:xlink="http://www.w3.org/1999/xlink" width="400" height="312.4593716143012" viewBox="0, 0, 400,312.4593716143012"><g id="svgg"><path id="path0" d="M323.500 104.107 C 317.126 104.935,310.268 110.110,308.988 115.057 C 308.914 115.346,308.642 116.146,308.385 116.833 C 307.925 118.063,307.918 118.142,307.917 121.750 L 307.917 125.417 308.528 127.167 C 309.150 128.946,310.578 131.833,310.836 131.833 C 310.914 131.833,311.022 131.975,311.077 132.148 C 311.132 132.321,311.344 132.647,311.547 132.873 C 311.750 133.098,312.071 133.463,312.260 133.683 C 318.579 141.050,331.370 141.339,338.052 134.266 C 338.949 133.317,340.333 131.586,340.333 131.413 C 340.333 131.352,340.486 131.087,340.673 130.825 C 344.371 125.631,343.801 116.695,339.397 110.831 C 338.482 109.613,335.680 107.000,335.289 107.000 C 335.190 107.000,334.991 106.893,334.846 106.761 C 333.036 105.123,326.836 103.673,323.500 104.107 M324.000 112.426 C 324.000 112.477,323.691 112.973,323.314 113.528 C 322.937 114.083,322.413 115.013,322.149 115.595 L 321.670 116.652 320.960 116.435 C 319.935 116.122,318.500 115.480,318.500 115.334 C 318.500 115.071,320.009 113.834,320.860 113.399 C 322.168 112.731,324.000 112.163,324.000 112.426 M325.167 114.772 L 325.167 117.210 323.983 117.093 C 322.447 116.942,322.297 116.879,322.432 116.439 C 322.725 115.477,324.720 112.333,325.036 112.333 C 325.108 112.333,325.167 113.431,325.167 114.772 M326.650 113.286 C 327.640 114.623,328.607 116.664,328.330 116.836 C 328.037 117.016,326.049 117.216,325.838 117.086 C 325.632 116.959,325.600 112.333,325.805 112.333 C 325.882 112.333,326.262 112.762,326.650 113.286 M328.274 112.683 C 329.857 113.167,332.322 114.738,332.330 115.269 C 332.334 115.472,330.787 116.205,329.791 116.472 L 329.165 116.640 328.606 115.445 C 328.299 114.788,327.775 113.849,327.441 113.358 C 326.607 112.134,326.572 112.162,328.274 112.683 M319.583 116.552 C 320.317 116.868,321.056 117.173,321.226 117.231 C 321.438 117.303,321.499 117.427,321.420 117.626 C 321.226 118.120,320.833 120.332,320.833 120.931 L 320.833 121.500 318.427 121.500 C 317.103 121.500,315.980 121.436,315.932 121.358 C 315.482 120.630,317.451 115.643,318.083 115.909 C 318.175 115.947,318.850 116.237,319.583 116.552 M333.647 116.958 C 334.324 118.108,334.729 119.296,334.928 120.713 L 335.039 121.509 332.561 121.463 L 330.083 121.417 329.967 120.358 C 329.902 119.775,329.766 118.895,329.664 118.402 C 329.561 117.908,329.478 117.453,329.478 117.389 C 329.478 117.326,329.915 117.114,330.448 116.918 C 330.981 116.722,331.717 116.401,332.083 116.205 C 332.978 115.726,332.900 115.688,333.647 116.958 M170.500 116.750 C 170.811 117.071,171.103 117.333,171.149 117.333 C 171.195 117.333,170.978 117.071,170.667 116.750 C 170.356 116.429,170.064 116.167,170.018 116.167 C 169.972 116.167,170.189 116.429,170.500 116.750 M324.625 117.775 L 325.167 117.870 325.167 119.685 L 325.167 121.500 323.333 121.500 L 321.500 121.500 321.500 120.658 C 321.500 120.195,321.621 119.286,321.768 118.638 L 322.036 117.461 323.059 117.571 C 323.623 117.631,324.327 117.723,324.625 117.775 M328.995 118.292 C 329.105 118.727,329.238 119.630,329.289 120.298 L 329.382 121.512 327.566 121.464 L 325.750 121.417 325.703 119.636 L 325.656 117.855 326.369 117.763 C 326.762 117.713,327.271 117.643,327.500 117.608 C 328.725 117.423,328.781 117.449,328.995 118.292 M170.833 119.250 C 171.331 119.754,171.776 120.167,171.822 120.167 C 171.868 120.167,171.498 119.754,171.000 119.250 C 170.502 118.746,170.057 118.333,170.011 118.333 C 169.966 118.333,170.335 118.746,170.833 119.250 M320.836 122.792 C 320.839 123.352,321.185 125.271,321.414 125.990 C 321.481 126.202,321.297 126.339,320.626 126.577 C 320.144 126.748,319.348 127.076,318.856 127.306 L 317.961 127.724 317.635 127.320 C 316.889 126.399,315.853 123.548,315.836 122.375 C 315.834 122.217,316.443 122.167,318.333 122.167 L 320.833 122.167 320.836 122.792 M325.167 123.976 L 325.167 125.784 323.958 125.895 C 323.294 125.956,322.605 126.023,322.428 126.045 C 322.033 126.092,321.724 125.174,321.528 123.375 L 321.397 122.167 323.282 122.167 L 325.167 122.167 325.167 123.976 M329.333 122.886 C 329.333 123.706,329.036 125.455,328.831 125.837 C 328.713 126.059,328.495 126.069,327.222 125.918 L 325.750 125.743 325.703 123.955 L 325.655 122.167 327.494 122.167 L 329.333 122.167 329.333 122.886 M335.000 122.340 C 335.000 123.562,333.996 126.364,333.227 127.291 L 332.917 127.664 331.167 126.961 C 330.204 126.575,329.401 126.253,329.381 126.246 C 329.362 126.240,329.458 125.863,329.595 125.409 C 329.732 124.955,329.890 124.040,329.946 123.375 L 330.049 122.167 332.524 122.167 C 334.130 122.167,335.000 122.228,335.000 122.340 M325.167 128.833 C 325.167 130.195,325.101 131.167,325.008 131.167 C 324.655 131.167,322.775 128.167,322.431 127.053 C 322.303 126.639,322.540 126.568,324.208 126.525 L 325.167 126.500 325.167 128.833 M328.457 126.735 C 328.719 126.997,326.250 131.167,325.832 131.167 C 325.731 131.167,325.667 130.254,325.667 128.810 L 325.667 126.452 327.013 126.545 C 327.753 126.595,328.403 126.681,328.457 126.735 M322.214 128.064 C 322.536 128.741,323.070 129.698,323.402 130.189 C 324.109 131.236,323.983 131.352,322.623 130.906 C 321.074 130.400,318.500 128.790,318.500 128.328 C 318.500 128.111,319.898 127.442,321.606 126.841 C 321.619 126.837,321.893 127.387,322.214 128.064 M331.267 127.650 C 332.555 128.253,332.563 128.311,331.468 129.176 C 329.292 130.897,326.301 131.788,327.307 130.417 C 327.869 129.649,329.000 127.479,329.000 127.167 C 329.000 126.849,330.018 127.066,331.267 127.650 M177.217 135.833 C 177.217 136.337,177.248 136.544,177.286 136.292 C 177.324 136.040,177.324 135.627,177.286 135.375 C 177.248 135.123,177.217 135.329,177.217 135.833 M178.726 138.250 C 178.725 139.075,178.754 139.434,178.788 139.047 C 178.823 138.660,178.824 137.985,178.789 137.547 C 178.755 137.109,178.726 137.425,178.726 138.250 M65.018 173.584 C 64.433 173.795,63.795 174.053,63.602 174.155 C 61.804 175.108,54.105 176.292,51.423 176.028 C 50.319 175.919,49.087 175.831,48.684 175.832 L 47.950 175.833 48.045 177.708 C 48.452 185.766,48.904 195.256,49.331 204.667 C 49.607 210.762,50.100 221.225,50.425 227.917 C 50.750 234.608,51.014 240.908,51.012 241.917 C 50.995 250.479,54.758 256.204,62.083 258.758 L 63.917 259.398 67.167 259.391 C 70.632 259.383,70.554 259.397,73.398 258.328 C 74.416 257.945,74.793 257.724,76.750 256.360 C 77.392 255.913,78.517 255.186,79.250 254.744 C 79.983 254.302,82.683 252.668,85.250 251.113 C 87.817 249.558,91.004 247.630,92.333 246.829 C 93.662 246.028,97.638 243.631,101.167 241.502 C 104.696 239.373,107.658 237.617,107.750 237.600 C 107.842 237.582,108.217 237.378,108.583 237.147 C 109.911 236.308,109.882 236.284,109.771 238.123 C 109.717 239.018,109.628 242.000,109.572 244.750 C 109.487 248.961,109.397 250.276,109.001 253.083 C 108.742 254.917,108.483 256.904,108.425 257.500 C 108.317 258.603,107.723 263.248,106.825 270.000 C 106.551 272.063,106.287 274.200,106.238 274.750 C 106.189 275.300,105.932 277.400,105.665 279.417 C 105.399 281.433,105.019 284.356,104.821 285.912 C 104.623 287.468,104.424 288.836,104.379 288.954 C 104.313 289.126,108.225 289.167,124.804 289.167 L 145.310 289.167 144.869 288.378 C 144.038 286.891,144.410 285.062,145.722 284.193 L 146.392 283.750 163.829 283.706 L 181.266 283.662 181.627 282.123 C 181.826 281.276,182.697 277.808,183.562 274.417 C 184.427 271.025,185.926 265.137,186.893 261.333 C 189.518 251.014,190.131 248.606,192.179 240.583 C 193.209 236.550,194.179 232.665,194.335 231.949 C 194.980 228.990,194.940 229.000,206.601 229.000 L 215.809 229.000 216.339 227.625 C 216.630 226.869,217.348 225.245,217.934 224.016 C 218.520 222.788,219.000 221.664,219.000 221.518 C 219.000 220.661,216.638 212.929,215.980 211.632 C 215.808 211.292,215.667 210.928,215.667 210.823 C 215.667 210.581,213.302 205.846,212.868 205.220 C 212.689 204.962,212.327 204.384,212.063 203.936 C 211.123 202.341,210.055 200.843,208.602 199.083 C 207.450 197.689,206.934 197.135,205.201 195.432 C 202.511 192.790,201.095 191.589,199.130 190.288 C 198.608 189.942,198.139 189.590,198.087 189.507 C 198.036 189.423,197.789 189.249,197.538 189.120 C 197.288 188.991,196.446 188.490,195.667 188.007 C 194.887 187.524,194.071 187.060,193.853 186.977 C 193.635 186.893,193.260 186.686,193.020 186.516 C 192.780 186.346,191.796 185.856,190.833 185.427 C 189.871 184.999,188.949 184.574,188.786 184.485 C 187.111 183.573,178.572 180.862,176.250 180.507 C 175.792 180.436,174.421 180.168,173.204 179.910 C 171.860 179.625,170.935 179.502,170.847 179.596 C 170.767 179.681,170.612 181.400,170.502 183.417 C 170.271 187.642,170.072 188.472,168.886 190.134 C 165.583 194.766,156.593 196.965,148.308 195.168 C 143.331 194.089,142.416 192.395,142.418 184.271 L 142.419 179.293 141.350 179.393 C 139.427 179.572,132.714 181.384,131.333 182.097 C 131.104 182.215,130.129 182.688,129.167 183.147 C 128.204 183.607,127.158 184.174,126.843 184.408 C 126.527 184.642,126.177 184.833,126.065 184.833 C 125.953 184.833,125.836 184.890,125.806 184.958 C 125.775 185.027,125.300 185.416,124.750 185.822 C 124.200 186.229,123.712 186.612,123.667 186.674 C 123.621 186.737,123.208 186.904,122.750 187.045 C 121.782 187.345,119.787 188.169,118.684 188.727 C 118.262 188.940,116.976 189.569,115.826 190.125 C 114.676 190.681,113.423 191.386,113.041 191.693 C 112.659 191.999,112.025 192.492,111.632 192.788 C 111.238 193.084,110.325 193.796,109.603 194.371 C 108.880 194.946,108.167 195.492,108.019 195.583 C 107.871 195.675,107.480 195.975,107.150 196.250 C 106.820 196.525,106.198 197.012,105.768 197.333 C 104.893 197.987,103.976 198.696,103.143 199.366 C 102.835 199.613,101.721 200.465,100.667 201.259 C 99.612 202.054,98.704 202.777,98.648 202.867 C 98.591 202.957,98.392 203.117,98.205 203.223 C 97.672 203.526,94.757 205.790,94.419 206.164 C 94.252 206.349,94.042 206.500,93.953 206.500 C 93.863 206.500,93.481 206.766,93.104 207.092 C 92.726 207.417,92.342 207.738,92.250 207.804 C 91.277 208.506,88.405 210.731,87.833 211.225 C 87.696 211.344,86.890 211.954,86.042 212.581 C 85.194 213.209,84.500 213.784,84.500 213.861 C 84.500 213.937,84.399 214.000,84.276 214.000 C 84.153 214.000,83.909 214.160,83.734 214.355 C 83.560 214.550,83.183 214.869,82.896 215.063 C 82.610 215.258,81.935 215.751,81.396 216.159 C 80.114 217.132,80.209 217.058,79.250 217.833 C 78.792 218.204,78.326 218.581,78.215 218.670 C 77.742 219.054,77.749 219.072,76.682 214.667 C 76.158 212.501,75.847 211.257,75.318 209.204 C 75.051 208.170,74.833 207.198,74.833 207.042 C 74.833 206.887,74.578 205.820,74.266 204.672 C 73.954 203.523,73.580 202.058,73.435 201.417 C 73.291 200.775,73.051 199.762,72.903 199.167 C 72.754 198.571,72.373 197.033,72.055 195.750 C 71.737 194.467,71.256 192.554,70.986 191.500 C 70.716 190.446,70.496 189.481,70.497 189.355 C 70.499 189.230,70.233 188.105,69.907 186.855 C 69.581 185.606,69.092 183.683,68.820 182.583 C 68.548 181.483,68.065 179.597,67.746 178.391 C 67.427 177.185,67.167 176.060,67.167 175.891 C 67.168 175.319,66.453 173.167,66.267 173.183 C 66.166 173.192,65.604 173.372,65.018 173.584 M110.286 228.625 C 110.248 228.877,110.217 228.671,110.217 228.167 C 110.217 227.662,110.248 227.456,110.286 227.708 C 110.324 227.960,110.324 228.373,110.286 228.625 M110.208 230.875 C 110.154 233.053,109.978 235.150,109.874 234.858 C 109.760 234.537,110.013 229.167,110.143 229.167 C 110.202 229.166,110.231 229.935,110.208 230.875 " stroke="none" fill="#809d1d" fill-rule="evenodd"></path><path id="path1" d="M238.750 41.768 C 238.200 41.897,237.487 42.050,237.167 42.108 C 236.350 42.255,233.521 43.472,232.901 43.942 C 232.617 44.157,232.325 44.333,232.251 44.333 C 231.358 44.333,227.488 48.577,226.371 50.782 C 226.083 51.350,225.775 51.950,225.686 52.115 C 224.597 54.138,223.966 59.470,224.491 62.218 C 224.934 64.539,226.522 68.379,227.403 69.260 C 227.548 69.405,227.667 69.582,227.667 69.654 C 227.667 70.008,230.820 73.140,231.577 73.538 C 231.764 73.636,231.957 73.777,232.005 73.851 C 232.245 74.215,234.804 75.439,236.583 76.041 L 238.583 76.718 241.917 76.725 C 245.344 76.731,245.701 76.683,247.917 75.911 C 249.073 75.509,250.208 74.979,250.470 74.719 C 250.591 74.598,250.794 74.500,250.920 74.500 C 251.184 74.500,252.665 73.470,253.378 72.792 C 253.642 72.540,253.915 72.333,253.984 72.333 C 254.427 72.333,257.096 68.768,257.853 67.167 C 258.881 64.993,258.968 64.713,259.524 61.833 C 259.988 59.426,259.405 54.526,258.401 52.401 C 258.181 51.933,258.000 51.482,258.000 51.397 C 258.000 51.312,257.737 50.844,257.417 50.357 C 257.096 49.869,256.833 49.421,256.833 49.360 C 256.833 49.300,256.647 49.025,256.419 48.750 C 255.061 47.110,254.510 46.513,253.798 45.917 C 253.361 45.550,252.760 45.044,252.464 44.792 C 252.168 44.540,251.874 44.333,251.811 44.333 C 251.748 44.333,251.297 44.071,250.810 43.750 C 250.323 43.429,249.843 43.167,249.743 43.167 C 249.644 43.167,249.166 42.976,248.682 42.742 C 248.198 42.508,247.490 42.253,247.109 42.173 C 244.213 41.571,243.647 41.501,241.777 41.517 C 240.662 41.526,239.300 41.640,238.750 41.768 M240.894 50.002 C 243.135 51.970,242.281 56.586,239.812 55.847 C 237.710 55.217,238.483 59.048,241.238 62.909 C 242.338 64.450,243.667 64.726,243.667 63.413 C 243.667 63.035,244.661 62.333,245.196 62.333 C 246.798 62.333,248.987 64.637,248.996 66.333 C 249.011 69.330,242.824 69.706,240.319 66.861 C 238.093 64.332,234.996 57.799,235.002 55.646 C 235.013 51.727,238.765 48.133,240.894 50.002 M160.667 112.090 C 160.667 112.123,160.993 112.375,161.393 112.650 C 161.792 112.925,162.473 113.495,162.907 113.916 C 163.341 114.338,164.046 114.824,164.473 114.995 C 172.503 118.219,177.333 126.538,177.333 137.145 L 177.333 138.637 176.672 138.749 C 175.063 139.021,174.995 139.208,174.160 145.667 C 172.752 156.542,172.797 156.090,173.068 156.740 C 173.606 158.025,175.861 158.475,176.720 157.467 C 176.986 157.154,177.372 156.983,178.167 156.829 C 181.854 156.111,184.697 152.506,184.734 148.500 C 184.749 146.835,184.163 144.495,183.647 144.159 C 183.569 144.109,183.254 143.712,182.945 143.278 C 182.224 142.265,180.897 141.134,179.846 140.639 C 178.773 140.134,178.711 139.942,178.603 136.833 C 178.184 124.769,172.608 115.718,163.833 112.861 C 162.653 112.477,160.667 111.993,160.667 112.090 M325.733 114.667 C 325.733 115.996,325.759 116.540,325.790 115.875 C 325.822 115.210,325.822 114.123,325.790 113.458 C 325.759 112.794,325.733 113.337,325.733 114.667 M325.729 119.583 C 325.729 120.592,325.757 120.983,325.790 120.452 C 325.823 119.922,325.823 119.097,325.789 118.619 C 325.756 118.141,325.729 118.575,325.729 119.583 M325.729 123.917 C 325.729 124.925,325.757 125.316,325.790 124.786 C 325.823 124.255,325.823 123.430,325.789 122.952 C 325.756 122.474,325.729 122.908,325.729 123.917 M325.733 128.833 C 325.733 130.162,325.759 130.706,325.790 130.042 C 325.822 129.377,325.822 128.290,325.790 127.625 C 325.759 126.960,325.733 127.504,325.733 128.833 M126.809 137.377 C 124.174 139.715,123.212 143.727,124.483 147.083 C 125.195 148.964,126.759 150.761,128.478 151.672 C 129.157 152.031,129.687 152.456,129.946 152.848 C 130.626 153.875,132.007 153.975,133.103 153.076 C 133.924 152.404,134.093 151.942,134.263 149.917 C 134.324 149.183,134.579 147.158,134.828 145.417 C 135.460 141.006,135.459 141.001,133.859 140.335 C 132.195 139.643,130.719 138.829,129.130 137.726 C 127.623 136.680,127.599 136.676,126.809 137.377 M272.792 170.948 C 272.393 171.052,272.408 171.084,273.162 171.765 C 274.157 172.665,274.723 173.952,274.738 175.353 C 274.751 176.630,274.767 176.648,275.414 176.139 C 277.608 174.413,275.499 170.241,272.792 170.948 M142.438 175.021 C 142.302 175.698,142.303 178.568,142.439 179.560 C 142.561 180.445,142.882 180.528,144.700 180.149 C 148.606 179.334,151.909 177.980,155.135 175.871 C 156.723 174.833,156.778 174.698,155.424 175.164 C 151.703 176.444,148.495 176.394,144.282 174.989 C 142.483 174.389,142.564 174.388,142.438 175.021 M278.075 177.875 L 277.417 178.583 278.125 177.925 C 278.784 177.312,278.910 177.167,278.784 177.167 C 278.757 177.167,278.438 177.485,278.075 177.875 M232.415 178.385 C 231.300 179.500,231.296 181.273,232.405 182.292 C 233.241 183.059,233.565 183.029,233.225 182.216 C 232.866 181.358,232.977 179.474,233.440 178.542 L 233.792 177.833 233.379 177.833 C 233.134 177.833,232.742 178.058,232.415 178.385 M272.375 180.917 C 272.377 181.283,272.411 181.414,272.451 181.206 C 272.491 180.999,272.490 180.699,272.448 180.540 C 272.406 180.380,272.374 180.550,272.375 180.917 M170.548 181.250 C 170.549 181.708,170.581 181.876,170.620 181.623 C 170.658 181.369,170.657 180.994,170.617 180.789 C 170.578 180.584,170.546 180.792,170.548 181.250 M142.403 184.750 C 142.403 186.583,142.428 187.356,142.457 186.467 C 142.487 185.578,142.488 184.078,142.458 183.134 C 142.428 182.189,142.404 182.917,142.403 184.750 M142.515 188.783 C 142.498 189.375,142.826 191.063,142.936 190.953 C 142.974 190.915,142.898 190.291,142.768 189.567 C 142.637 188.843,142.523 188.490,142.515 188.783 M326.296 189.526 C 326.253 190.108,325.977 192.196,325.684 194.167 C 324.462 202.359,324.281 203.645,324.165 204.917 C 324.099 205.650,323.812 207.787,323.528 209.667 C 322.827 214.307,322.036 220.016,321.911 221.333 C 321.854 221.929,321.623 223.542,321.397 224.917 C 321.170 226.292,320.911 228.201,320.819 229.159 C 320.624 231.213,320.665 231.141,319.971 230.643 C 319.670 230.427,319.301 230.175,319.151 230.083 C 319.000 229.992,318.661 229.774,318.397 229.600 C 316.977 228.663,316.065 228.074,315.917 227.999 C 315.735 227.908,313.993 226.792,313.350 226.355 C 313.130 226.206,312.784 225.971,312.580 225.833 C 312.377 225.696,311.749 225.303,311.185 224.961 C 310.620 224.619,310.067 224.260,309.954 224.163 C 309.842 224.066,309.186 223.633,308.497 223.202 C 307.808 222.770,307.058 222.281,306.831 222.115 C 306.603 221.950,305.817 221.447,305.083 220.999 C 304.350 220.551,303.525 220.026,303.250 219.832 C 302.263 219.138,300.968 218.333,300.839 218.333 C 300.767 218.333,300.611 218.217,300.493 218.074 C 300.374 217.932,299.757 217.501,299.120 217.116 C 297.659 216.234,297.708 216.265,295.917 215.078 C 295.092 214.531,294.342 214.046,294.250 213.999 C 294.068 213.908,292.326 212.792,291.683 212.355 C 291.464 212.206,291.117 211.971,290.914 211.833 C 290.710 211.696,290.089 211.308,289.534 210.971 C 288.979 210.634,288.388 210.240,288.221 210.096 C 286.948 208.995,286.518 208.667,286.355 208.667 C 286.251 208.667,286.167 208.598,286.167 208.515 C 286.167 208.271,282.668 206.068,281.333 205.473 C 281.104 205.370,280.467 205.079,279.917 204.825 C 278.648 204.239,276.473 203.423,275.500 203.168 C 275.087 203.059,274.281 202.821,273.709 202.638 C 273.136 202.455,272.274 202.243,271.792 202.168 C 271.311 202.093,270.448 201.936,269.875 201.820 L 268.833 201.608 268.810 200.679 C 268.647 194.083,268.585 193.744,267.750 194.840 C 265.883 197.291,262.347 198.854,259.207 198.617 C 255.675 198.350,263.413 201.970,267.697 202.588 L 268.477 202.701 268.594 203.792 C 268.973 207.334,268.382 211.352,267.302 212.579 C 264.700 215.535,254.778 215.458,250.130 212.447 C 247.353 210.647,246.845 209.588,246.601 205.088 C 246.384 201.085,246.564 201.397,244.729 201.853 C 239.783 203.083,232.113 206.653,230.688 208.388 C 230.562 208.541,230.389 208.667,230.303 208.667 C 230.217 208.667,229.495 209.209,228.698 209.871 C 225.479 212.548,222.326 216.128,220.423 219.269 C 220.152 219.717,219.721 220.376,219.465 220.733 C 219.209 221.091,219.000 221.473,219.000 221.583 C 219.000 221.693,218.521 222.788,217.935 224.016 C 216.951 226.080,215.836 228.747,215.834 229.042 C 215.834 229.110,228.886 229.167,244.840 229.167 C 277.234 229.167,274.542 229.070,275.484 230.268 C 276.332 231.346,276.317 231.605,275.120 236.288 C 274.516 238.651,273.412 242.983,272.667 245.917 C 271.921 248.850,270.796 253.275,270.166 255.750 C 269.536 258.225,268.458 262.462,267.770 265.167 C 267.082 267.871,266.033 271.996,265.437 274.333 C 264.842 276.671,263.899 280.421,263.342 282.667 C 261.979 288.157,262.024 288.009,261.550 288.636 C 261.321 288.940,261.159 289.210,261.192 289.237 C 261.224 289.264,267.287 289.227,274.667 289.154 C 282.046 289.082,291.106 289.017,294.799 289.011 L 301.515 289.000 301.415 287.292 C 301.318 285.648,301.085 283.342,300.587 279.083 C 300.458 277.983,300.312 276.408,300.263 275.583 C 300.213 274.758,299.946 272.178,299.670 269.849 C 299.393 267.520,299.167 265.277,299.167 264.865 C 299.167 264.452,298.945 262.195,298.675 259.849 C 298.404 257.503,298.151 255.058,298.112 254.417 C 298.045 253.299,298.314 242.302,298.411 242.201 C 298.437 242.175,298.899 242.378,299.437 242.653 C 299.976 242.929,301.467 243.649,302.750 244.254 C 304.974 245.302,305.618 245.607,308.500 246.968 C 309.188 247.293,309.862 247.607,310.000 247.666 C 310.137 247.726,310.550 247.925,310.917 248.109 C 311.678 248.491,313.978 249.589,315.333 250.217 C 316.133 250.587,317.787 251.368,321.583 253.169 C 322.133 253.430,323.708 254.181,325.083 254.838 C 333.088 258.663,341.433 255.536,343.900 247.787 C 344.694 245.293,344.719 244.665,344.161 241.049 C 343.889 239.289,343.667 237.601,343.667 237.299 C 343.667 236.997,343.409 234.987,343.094 232.833 C 342.778 230.679,342.450 228.279,342.364 227.500 C 342.190 225.918,341.761 222.740,340.901 216.667 C 340.583 214.421,340.325 212.346,340.328 212.056 C 340.331 211.767,340.143 210.312,339.910 208.823 C 339.677 207.335,339.419 205.397,339.336 204.517 C 339.253 203.637,338.959 201.304,338.682 199.333 C 338.406 197.362,337.980 194.175,337.736 192.250 C 337.492 190.325,337.269 188.724,337.241 188.692 C 337.212 188.660,335.853 188.723,334.219 188.834 C 331.332 189.029,330.467 188.994,326.979 188.547 L 326.374 188.469 326.296 189.526 M167.824 191.292 L 167.250 191.917 167.875 191.342 C 168.457 190.808,168.577 190.667,168.449 190.667 C 168.422 190.667,168.140 190.948,167.824 191.292 M143.009 191.250 C 142.986 191.888,144.393 193.594,145.333 194.066 C 145.471 194.135,145.358 194.017,145.083 193.805 C 144.304 193.202,143.832 192.647,143.407 191.833 C 143.192 191.421,143.013 191.158,143.009 191.250 M146.755 194.743 C 147.033 194.868,147.558 195.016,147.922 195.071 L 148.583 195.171 147.886 194.940 C 147.502 194.812,146.977 194.665,146.719 194.611 L 146.250 194.514 146.755 194.743 M153.382 195.790 C 154.004 195.823,154.979 195.822,155.549 195.790 C 156.118 195.757,155.608 195.731,154.417 195.731 C 153.225 195.732,152.759 195.758,153.382 195.790 " stroke="none" fill="#ec8559" fill-rule="evenodd"></path><path id="path2" d="M162.167 23.453 C 162.167 23.659,162.925 25.093,163.348 25.688 C 163.523 25.934,163.667 26.192,163.667 26.261 C 163.667 26.331,163.900 26.750,164.184 27.194 C 164.756 28.084,165.329 29.108,165.758 30.000 C 165.912 30.321,166.171 30.771,166.333 31.000 C 166.629 31.419,167.509 32.987,167.968 33.917 C 168.104 34.192,168.308 34.529,168.422 34.667 C 168.536 34.804,168.872 35.367,169.170 35.917 C 169.468 36.467,169.935 37.329,170.208 37.833 C 170.481 38.337,170.803 38.863,170.924 39.000 C 171.106 39.208,171.061 40.056,170.660 44.000 C 170.395 46.613,169.948 51.150,169.668 54.083 C 169.007 61.001,168.495 66.214,168.379 67.208 C 168.249 68.321,168.417 68.275,171.254 66.417 C 172.584 65.546,173.727 64.833,173.794 64.833 C 173.862 64.833,174.142 64.638,174.417 64.401 C 174.692 64.163,175.142 63.852,175.417 63.710 C 175.692 63.567,176.149 63.274,176.432 63.059 C 176.716 62.843,176.998 62.667,177.060 62.667 C 177.121 62.667,177.883 62.184,178.752 61.595 C 179.622 61.005,180.483 60.475,180.667 60.417 C 180.850 60.358,181.000 60.255,181.000 60.186 C 181.000 60.064,182.196 59.333,182.396 59.333 C 182.451 59.333,182.764 59.840,183.091 60.458 C 183.418 61.077,183.978 62.071,184.336 62.667 C 184.693 63.262,185.079 63.938,185.194 64.167 C 185.309 64.396,185.649 64.979,185.951 65.462 C 186.253 65.945,186.500 66.410,186.500 66.495 C 186.500 66.580,186.725 66.983,187.000 67.391 C 187.275 67.798,187.500 68.204,187.500 68.293 C 187.500 68.382,187.640 68.634,187.811 68.853 C 187.982 69.071,188.357 69.681,188.644 70.208 C 188.932 70.735,189.402 71.598,189.689 72.125 C 189.977 72.652,190.352 73.262,190.522 73.481 C 190.693 73.699,190.833 73.932,190.833 73.999 C 190.833 74.121,192.257 76.642,192.761 77.410 C 193.256 78.166,193.488 77.934,195.026 75.145 C 195.178 74.869,195.413 74.518,195.548 74.363 C 195.684 74.209,195.951 73.772,196.142 73.392 C 196.333 73.012,196.589 72.600,196.711 72.476 C 196.931 72.252,197.869 70.721,198.313 69.862 C 198.440 69.617,198.671 69.267,198.827 69.083 C 198.983 68.900,199.323 68.375,199.583 67.917 C 199.842 67.458,200.106 67.046,200.168 67.000 C 200.231 66.954,200.387 66.719,200.516 66.477 C 200.645 66.234,201.088 65.498,201.500 64.840 C 201.912 64.182,202.364 63.443,202.502 63.197 C 202.641 62.951,202.979 62.411,203.252 61.997 C 203.526 61.583,203.842 61.096,203.955 60.914 C 204.069 60.732,204.481 60.071,204.872 59.444 C 205.724 58.079,206.092 57.478,206.736 56.398 C 207.003 55.950,207.348 55.433,207.502 55.250 C 207.777 54.924,208.690 53.412,209.147 52.528 C 209.273 52.284,209.506 51.933,209.665 51.750 C 209.823 51.567,210.163 51.023,210.419 50.542 C 210.676 50.060,210.944 49.667,211.015 49.667 C 211.086 49.667,211.196 49.502,211.260 49.301 C 211.324 49.100,211.629 48.576,211.938 48.136 C 212.247 47.696,212.500 47.271,212.500 47.191 C 212.500 47.111,212.725 46.763,213.000 46.417 C 213.275 46.071,213.500 45.722,213.500 45.642 C 213.500 45.562,213.762 45.123,214.083 44.667 C 214.404 44.210,214.667 43.766,214.667 43.680 C 214.667 43.594,214.777 43.413,214.912 43.278 C 215.048 43.143,215.441 42.569,215.787 42.002 C 216.134 41.436,216.567 40.729,216.750 40.431 C 216.933 40.134,217.333 39.484,217.638 38.987 C 217.943 38.490,218.560 37.521,219.008 36.833 C 220.110 35.143,220.178 34.968,219.986 34.306 C 219.673 33.225,219.176 32.830,217.902 32.648 C 217.268 32.558,215.325 32.224,213.583 31.906 C 211.842 31.588,210.239 31.329,210.022 31.330 C 209.805 31.332,208.418 31.113,206.939 30.844 C 201.768 29.902,197.578 29.179,196.917 29.115 C 196.550 29.080,195.162 28.855,193.833 28.615 C 190.915 28.089,187.943 27.570,185.917 27.234 C 185.092 27.096,183.067 26.760,181.417 26.485 C 179.767 26.211,177.142 25.754,175.583 25.470 C 174.025 25.186,172.300 24.902,171.750 24.838 C 171.200 24.775,169.662 24.527,168.333 24.287 C 166.180 23.899,164.824 23.677,162.792 23.381 C 162.432 23.328,162.167 23.359,162.167 23.453 M238.248 49.850 C 234.503 51.821,234.146 55.807,237.172 61.844 C 239.893 67.272,241.580 68.745,245.083 68.748 C 249.611 68.753,250.445 64.579,246.308 62.621 C 245.238 62.115,243.667 62.586,243.667 63.413 C 243.667 64.726,242.338 64.450,241.238 62.909 C 238.483 59.048,237.710 55.217,239.812 55.847 C 241.324 56.300,242.278 55.163,242.121 53.095 C 241.896 50.136,240.278 48.781,238.248 49.850 M292.500 53.444 C 292.271 53.479,291.746 53.588,291.333 53.685 C 290.921 53.782,290.171 53.929,289.667 54.012 C 288.084 54.271,283.651 56.202,282.783 57.011 C 282.593 57.188,282.368 57.333,282.284 57.333 C 282.061 57.333,280.073 58.921,278.952 59.993 C 277.775 61.121,275.740 63.760,275.102 64.988 C 274.844 65.486,274.569 66.011,274.491 66.155 C 273.994 67.079,273.258 68.848,273.071 69.568 C 272.951 70.035,272.691 71.017,272.495 71.750 C 271.953 73.769,271.950 79.803,272.490 81.750 C 272.693 82.483,272.956 83.458,273.074 83.917 C 273.256 84.622,273.995 86.409,274.493 87.345 C 274.570 87.489,274.844 88.014,275.102 88.512 C 275.727 89.714,277.767 92.376,278.867 93.424 C 279.988 94.493,282.071 96.167,282.279 96.167 C 282.366 96.167,282.583 96.302,282.760 96.466 C 282.938 96.631,283.758 97.113,284.583 97.537 C 294.988 102.882,307.955 99.779,314.552 90.364 C 315.073 89.620,315.500 88.969,315.500 88.918 C 315.500 88.868,315.680 88.547,315.901 88.205 C 318.407 84.315,319.580 76.249,318.315 71.597 C 318.138 70.948,317.881 69.996,317.744 69.483 C 317.606 68.969,317.335 68.221,317.141 67.820 C 316.948 67.420,316.651 66.790,316.482 66.421 C 314.495 62.085,310.439 57.978,306.000 55.805 C 304.268 54.957,302.227 54.186,301.244 54.008 C 300.789 53.926,299.817 53.743,299.083 53.602 C 297.855 53.365,293.653 53.264,292.500 53.444 M97.083 62.735 C 96.992 62.768,95.867 63.034,94.583 63.326 C 92.040 63.906,89.808 64.468,86.333 65.403 C 85.096 65.736,84.008 66.006,83.917 66.001 C 83.710 65.991,81.289 66.713,76.833 68.114 C 73.661 69.111,71.898 69.697,69.167 70.662 C 68.571 70.872,67.746 71.141,67.333 71.260 C 66.921 71.378,66.100 71.668,65.510 71.904 C 64.920 72.140,64.367 72.333,64.281 72.333 C 64.195 72.333,63.478 72.584,62.687 72.890 C 61.897 73.196,60.575 73.687,59.750 73.980 C 58.131 74.554,56.057 75.328,53.881 76.170 C 53.129 76.461,52.474 76.694,52.425 76.688 C 52.377 76.682,51.730 76.937,50.988 77.255 C 50.245 77.573,49.554 77.833,49.453 77.833 C 48.702 77.833,46.984 79.780,46.443 81.243 C 45.478 83.855,45.619 85.907,47.175 91.917 C 47.436 92.925,47.694 93.975,47.749 94.250 C 47.804 94.525,48.071 95.439,48.341 96.282 C 48.612 97.125,48.833 97.929,48.833 98.069 C 48.833 98.209,49.065 99.057,49.348 99.953 C 49.631 100.850,50.132 102.446,50.462 103.500 C 51.443 106.639,52.618 109.988,53.531 112.250 C 53.716 112.708,53.947 113.308,54.045 113.583 C 54.142 113.858,54.370 114.421,54.552 114.833 C 54.733 115.246,55.062 115.996,55.283 116.500 C 55.817 117.718,56.608 119.280,57.054 120.000 C 57.253 120.321,57.529 120.784,57.666 121.028 C 58.857 123.145,59.818 123.901,62.414 124.761 C 64.880 125.577,65.456 125.544,68.750 124.400 C 70.217 123.891,71.837 123.349,72.350 123.195 C 72.864 123.042,73.389 122.831,73.517 122.727 C 73.645 122.623,74.200 122.447,74.750 122.336 C 75.857 122.114,78.730 121.213,80.681 120.477 C 81.376 120.215,82.026 120.000,82.126 120.000 C 82.226 120.000,82.929 119.738,83.690 119.417 C 84.451 119.096,85.136 118.833,85.212 118.833 C 85.403 118.833,87.808 117.918,89.417 117.232 C 90.150 116.920,90.804 116.665,90.871 116.665 C 90.937 116.666,91.483 116.442,92.083 116.167 C 92.684 115.892,93.250 115.667,93.342 115.667 C 93.433 115.667,94.041 115.399,94.692 115.071 C 96.028 114.398,96.057 114.408,96.397 115.667 C 96.741 116.940,98.052 120.638,98.389 121.283 C 98.542 121.577,98.667 121.899,98.667 121.999 C 98.667 122.099,98.882 122.646,99.146 123.215 C 99.410 123.784,99.681 124.430,99.749 124.650 C 99.816 124.871,100.088 125.418,100.353 125.866 C 100.617 126.314,100.833 126.721,100.833 126.770 C 100.833 126.910,102.194 129.195,102.618 129.766 C 102.828 130.049,103.000 130.328,103.000 130.386 C 103.000 131.325,110.471 139.251,110.927 138.796 C 110.962 138.760,110.881 137.760,110.746 136.574 C 110.611 135.387,110.279 132.467,110.008 130.083 C 109.737 127.700,109.438 124.888,109.344 123.833 C 109.249 122.779,108.984 120.117,108.755 117.917 C 108.494 115.422,108.337 112.907,108.335 111.234 L 108.333 108.551 109.026 108.238 C 109.407 108.066,110.007 107.717,110.358 107.463 C 110.710 107.208,111.046 107.000,111.105 107.000 C 111.164 107.000,111.697 106.575,112.289 106.056 C 115.618 103.132,115.950 101.044,114.387 92.833 C 114.151 91.596,113.898 90.228,113.823 89.795 C 113.749 89.361,113.458 88.195,113.177 87.204 C 112.896 86.213,112.667 85.284,112.667 85.139 C 112.667 84.995,112.455 84.211,112.196 83.397 C 111.937 82.583,111.633 81.542,111.521 81.083 C 111.409 80.625,111.180 79.984,111.012 79.659 C 110.845 79.334,110.651 78.734,110.582 78.326 C 110.513 77.917,110.253 77.021,110.004 76.333 C 109.754 75.646,109.454 74.783,109.336 74.417 C 109.217 74.050,108.944 73.380,108.727 72.927 C 108.511 72.475,108.333 72.014,108.333 71.903 C 108.333 71.426,105.990 66.645,105.476 66.073 C 105.306 65.883,105.167 65.646,105.167 65.546 C 105.167 64.052,99.202 61.977,97.083 62.735 M98.308 76.666 C 98.535 77.317,99.588 76.896,87.083 81.161 C 81.125 83.194,74.862 85.333,73.167 85.915 C 71.471 86.496,67.233 87.947,63.750 89.137 L 57.417 91.302 57.200 90.798 C 56.931 90.173,56.427 90.428,61.083 88.838 C 63.283 88.087,68.008 86.472,71.583 85.250 C 75.158 84.029,80.971 82.042,84.500 80.837 C 96.087 76.878,97.079 76.536,97.500 76.361 C 98.101 76.111,98.117 76.117,98.308 76.666 M102.144 86.841 C 102.277 87.222,102.271 87.366,102.119 87.419 C 97.815 88.915,84.416 93.553,75.167 96.749 C 71.821 97.905,67.508 99.402,65.583 100.076 C 61.939 101.351,61.924 101.354,61.750 100.651 C 61.646 100.230,61.692 100.203,63.614 99.540 C 64.697 99.166,68.433 97.873,71.917 96.667 C 75.400 95.461,80.762 93.604,83.833 92.540 C 86.904 91.477,92.154 89.649,95.500 88.479 C 102.456 86.047,101.914 86.181,102.144 86.841 M104.971 97.988 C 105.126 98.434,105.103 98.490,104.696 98.636 C 104.060 98.864,98.153 101.018,89.083 104.329 C 84.775 105.901,79.412 107.858,77.167 108.677 C 74.921 109.496,71.471 110.758,69.500 111.481 C 66.308 112.652,65.894 112.767,65.708 112.533 C 65.223 111.920,65.441 111.722,67.375 111.029 C 68.406 110.659,71.425 109.560,74.083 108.586 C 76.742 107.612,80.942 106.077,83.417 105.174 C 85.892 104.271,90.429 102.614,93.500 101.492 C 106.123 96.880,104.733 97.304,104.971 97.988 M322.750 112.644 C 321.457 113.016,320.135 113.742,319.183 114.603 L 318.425 115.288 319.163 115.665 C 319.569 115.872,320.292 116.176,320.771 116.341 L 321.642 116.640 322.244 115.373 C 322.575 114.676,323.106 113.744,323.423 113.302 C 324.230 112.179,324.262 112.210,322.750 112.644 M324.216 113.309 C 323.831 113.840,323.249 114.830,322.924 115.508 C 322.234 116.947,322.237 116.951,324.037 117.035 L 325.083 117.083 325.130 114.708 C 325.182 112.012,325.170 111.994,324.216 113.309 M326.926 112.524 C 326.999 112.648,327.223 112.975,327.422 113.250 C 327.854 113.846,328.771 115.566,328.994 116.202 L 329.153 116.653 330.035 116.343 C 331.299 115.898,332.130 115.527,332.232 115.362 C 332.492 114.942,329.838 113.151,328.333 112.730 C 327.829 112.589,327.276 112.434,327.104 112.386 C 326.874 112.321,326.827 112.357,326.926 112.524 M325.833 114.813 C 325.833 116.944,325.861 117.167,326.125 117.166 C 326.523 117.164,328.364 116.858,328.441 116.781 C 328.650 116.572,326.726 113.193,326.112 112.688 C 325.854 112.476,325.833 112.633,325.833 114.813 M317.610 116.376 C 316.708 117.579,316.000 119.516,316.000 120.780 L 316.000 121.500 318.417 121.500 L 320.833 121.500 320.833 120.826 C 320.833 120.456,320.952 119.575,321.098 118.868 C 321.244 118.161,321.375 117.519,321.390 117.439 C 321.405 117.360,321.042 117.165,320.583 117.005 C 320.125 116.846,319.360 116.517,318.883 116.275 L 318.015 115.835 317.610 116.376 M331.844 116.354 C 331.262 116.618,330.497 116.921,330.143 117.027 C 329.440 117.237,329.396 117.371,329.688 118.417 C 329.790 118.783,329.921 119.608,329.978 120.250 L 330.083 121.417 332.403 121.463 C 333.680 121.489,334.789 121.444,334.869 121.364 C 335.248 120.986,334.062 117.350,333.204 116.260 L 332.901 115.874 331.844 116.354 M322.015 117.876 C 321.784 118.485,321.500 120.134,321.500 120.870 L 321.500 121.511 323.292 121.464 L 325.083 121.417 325.130 119.645 L 325.178 117.873 324.422 117.770 C 321.980 117.436,322.186 117.427,322.015 117.876 M326.875 117.702 L 325.833 117.862 325.833 119.681 L 325.833 121.500 327.608 121.500 L 329.382 121.500 329.284 120.375 C 329.026 117.388,329.014 117.374,326.875 117.702 M316.000 122.803 C 316.000 123.634,316.418 125.021,317.015 126.167 C 317.849 127.770,317.791 127.740,319.018 127.189 C 319.604 126.926,320.365 126.620,320.708 126.509 C 321.417 126.281,321.427 126.229,321.083 124.667 C 320.952 124.071,320.842 123.265,320.839 122.875 L 320.833 122.167 318.417 122.167 L 316.000 122.167 316.000 122.803 M321.546 123.292 C 321.598 123.910,321.731 124.777,321.842 125.218 L 322.044 126.019 323.397 125.914 C 325.308 125.765,325.167 125.924,325.167 123.922 L 325.167 122.167 323.309 122.167 L 321.452 122.167 321.546 123.292 M325.833 123.975 L 325.833 125.784 327.275 125.895 C 328.068 125.956,328.741 125.981,328.770 125.952 C 328.901 125.822,329.333 123.417,329.333 122.822 L 329.333 122.167 327.583 122.167 L 325.833 122.167 325.833 123.975 M330.000 122.912 C 330.000 123.322,329.876 124.223,329.724 124.914 C 329.572 125.605,329.478 126.197,329.516 126.230 C 329.638 126.339,332.578 127.520,332.806 127.552 C 333.385 127.634,334.440 125.219,334.922 122.708 L 335.026 122.167 332.513 122.167 L 330.000 122.167 330.000 122.912 M323.000 126.620 C 322.771 126.661,322.528 126.748,322.460 126.813 C 322.192 127.068,324.617 131.167,325.036 131.167 C 325.108 131.167,325.167 130.117,325.167 128.833 L 325.167 126.500 324.292 126.523 C 323.810 126.535,323.229 126.579,323.000 126.620 M325.833 128.819 C 325.833 130.151,325.898 131.146,325.981 131.095 C 326.617 130.702,328.646 126.943,328.329 126.747 C 328.240 126.692,327.642 126.603,327.000 126.549 L 325.833 126.452 325.833 128.819 M320.833 127.123 C 320.696 127.177,320.103 127.435,319.515 127.698 L 318.447 128.176 318.932 128.688 C 319.936 129.748,321.915 130.813,323.399 131.091 L 324.048 131.213 323.512 130.434 C 323.217 130.006,322.681 129.058,322.321 128.328 C 321.669 127.007,321.495 126.867,320.833 127.123 M328.775 127.877 C 328.552 128.380,328.080 129.233,327.727 129.771 C 327.373 130.310,327.018 130.854,326.937 130.981 C 326.486 131.696,329.668 130.466,331.208 129.331 C 332.592 128.311,332.593 128.264,331.240 127.650 C 329.360 126.797,329.247 126.808,328.775 127.877 M168.542 129.560 C 167.591 134.569,163.082 138.418,155.657 140.558 C 150.237 142.120,143.805 142.747,139.830 142.101 C 138.958 141.960,137.816 141.905,136.874 141.958 L 135.340 142.046 135.251 142.565 C 135.002 144.028,134.346 148.908,134.252 150.000 C 134.193 150.688,134.067 151.561,133.973 151.942 C 133.025 155.776,137.683 161.608,142.794 162.987 L 144.004 163.313 144.242 162.744 C 145.039 160.836,147.898 161.276,148.109 163.339 C 148.315 165.353,146.105 166.341,144.591 164.913 C 144.253 164.594,143.810 164.333,143.606 164.333 C 140.263 164.333,135.504 160.723,133.643 156.776 L 133.317 156.083 133.389 159.000 C 133.451 161.502,133.525 162.154,133.911 163.583 C 134.159 164.500,134.424 165.503,134.501 165.813 C 134.578 166.122,134.834 166.748,135.070 167.203 C 135.307 167.658,135.500 168.104,135.500 168.194 C 135.500 168.741,139.044 172.833,139.518 172.833 C 139.598 172.833,139.816 172.964,140.002 173.124 C 140.450 173.507,142.322 174.500,142.598 174.500 C 142.717 174.500,143.475 174.720,144.282 174.989 C 148.495 176.394,151.703 176.444,155.424 175.164 C 156.778 174.698,156.723 174.833,155.135 175.871 C 151.441 178.286,145.947 180.333,143.158 180.333 L 142.500 180.333 142.500 184.137 C 142.500 191.929,143.384 193.711,147.833 194.895 C 155.262 196.872,164.206 195.125,168.129 190.931 C 169.902 189.035,170.264 187.911,170.416 183.833 C 170.473 182.321,170.590 180.596,170.678 180.000 C 170.887 178.577,171.130 174.550,171.256 170.411 C 171.311 168.581,171.420 165.958,171.498 164.583 C 171.662 161.676,171.716 161.853,170.845 162.429 C 169.990 162.994,169.919 162.923,170.229 161.810 C 170.366 161.318,170.518 160.617,170.568 160.250 C 171.790 151.286,172.743 144.679,173.176 142.167 C 174.075 136.959,173.327 134.032,170.035 129.875 C 168.730 128.227,168.792 128.240,168.542 129.560 M59.333 138.823 C 57.749 139.661,57.643 140.117,57.519 146.667 L 57.417 152.083 56.873 149.833 C 56.214 147.103,55.333 142.966,55.333 142.597 C 55.333 141.555,52.748 141.366,51.748 142.335 C 51.021 143.040,51.003 143.516,51.565 147.167 C 52.015 150.095,52.229 152.163,52.010 151.470 C 51.855 150.982,51.598 150.409,50.436 147.968 C 50.013 147.079,49.667 146.306,49.667 146.250 C 49.667 145.402,47.886 144.465,46.951 144.820 C 45.484 145.378,45.525 147.099,47.099 151.083 C 47.317 151.633,47.735 152.796,48.029 153.667 L 48.564 155.250 48.574 161.500 C 48.583 167.743,48.584 167.752,49.026 169.333 C 49.580 171.313,49.833 172.954,49.833 174.562 L 49.833 175.809 50.792 175.943 C 53.097 176.264,56.886 175.848,61.029 174.819 C 63.852 174.117,63.833 174.126,63.723 173.450 C 63.609 172.749,64.042 171.833,64.488 171.833 C 65.119 171.833,67.602 169.835,68.297 168.767 C 68.406 168.599,69.160 167.927,70.182 167.087 C 70.727 166.639,72.631 165.333,72.739 165.333 C 72.788 165.333,73.237 165.071,73.739 164.750 C 74.240 164.429,74.706 164.167,74.773 164.167 C 75.101 164.167,76.839 162.841,77.244 162.281 C 78.680 160.295,77.078 157.699,74.667 158.107 C 71.320 158.673,67.987 160.291,67.217 161.724 C 66.932 162.256,66.583 160.620,66.583 158.750 C 66.583 157.135,67.089 154.837,67.500 154.583 C 67.672 154.477,69.333 151.064,69.333 150.817 C 69.333 150.720,69.557 150.007,69.830 149.233 C 71.011 145.886,70.645 143.301,68.845 142.289 C 67.782 141.692,66.167 141.843,66.167 142.539 C 66.167 142.613,65.996 142.953,65.787 143.295 C 65.331 144.041,64.336 147.041,62.678 152.667 C 62.508 153.244,62.507 153.242,62.592 152.519 C 62.880 150.070,62.850 140.163,62.553 139.658 C 61.905 138.557,60.517 138.197,59.333 138.823 M163.875 140.789 L 166.667 140.861 166.667 141.431 L 166.667 142.000 164.074 142.000 C 161.190 142.000,159.911 141.792,160.093 141.353 C 160.154 141.205,160.244 140.946,160.292 140.778 C 160.357 140.550,160.468 140.504,160.731 140.595 C 160.925 140.662,162.340 140.749,163.875 140.789 M152.409 142.193 C 152.941 142.436,152.976 142.212,152.013 144.752 C 151.300 146.635,150.298 148.626,147.772 153.186 C 147.005 154.570,147.679 154.986,150.714 154.999 C 151.100 155.000,151.220 155.338,151.021 155.862 L 150.862 156.281 149.110 156.068 C 145.976 155.687,145.306 154.764,146.636 152.654 C 147.761 150.870,150.352 145.790,150.815 144.461 C 151.314 143.029,151.773 142.000,151.913 142.000 C 151.952 142.000,152.175 142.087,152.409 142.193 M145.100 143.567 C 146.520 144.987,144.929 147.161,143.145 146.239 C 142.014 145.654,141.965 143.988,143.059 143.321 C 143.852 142.837,144.442 142.908,145.100 143.567 M163.148 146.093 C 164.363 147.116,163.739 149.000,162.185 149.000 C 161.109 149.000,160.500 148.391,160.500 147.315 C 160.500 145.906,162.067 145.184,163.148 146.093 M252.067 156.261 C 243.377 157.721,236.676 165.426,236.668 173.966 L 236.667 175.015 236.042 174.883 C 229.875 173.575,225.419 180.388,229.583 184.757 C 230.366 185.578,231.852 186.593,232.022 186.423 C 232.064 186.380,232.464 186.455,232.909 186.589 C 234.689 187.125,237.311 186.760,238.759 185.776 L 239.415 185.331 239.749 185.933 C 240.870 187.953,243.424 190.996,245.279 192.521 L 245.975 193.094 246.015 196.505 C 246.038 198.381,246.123 200.329,246.206 200.833 C 246.288 201.338,246.452 203.265,246.570 205.116 C 246.856 209.593,247.375 210.661,250.130 212.447 C 254.778 215.458,264.700 215.535,267.302 212.579 C 268.382 211.352,268.973 207.334,268.594 203.792 L 268.477 202.701 267.697 202.588 C 265.106 202.214,261.938 201.091,259.562 199.703 C 257.770 198.656,257.720 198.505,259.207 198.617 C 262.348 198.855,265.886 197.290,267.750 194.839 C 268.025 194.477,268.343 194.213,268.457 194.251 C 268.570 194.290,268.710 194.137,268.766 193.911 C 268.823 193.685,268.927 193.500,268.997 193.500 C 269.169 193.500,270.411 190.969,270.362 190.718 C 270.340 190.608,270.504 190.072,270.726 189.526 C 271.500 187.622,272.323 183.577,272.330 181.646 C 272.332 181.130,272.378 180.485,272.433 180.211 L 272.532 179.714 273.998 179.619 C 280.251 179.214,281.977 171.404,276.308 169.167 C 275.270 168.757,273.463 168.605,272.339 168.833 C 271.941 168.914,271.914 168.858,271.489 167.083 C 269.430 158.468,262.364 154.530,252.067 156.261 M327.167 160.686 C 326.361 161.178,326.372 161.140,326.343 163.385 C 326.329 164.488,326.291 165.434,326.259 165.487 C 326.227 165.540,326.155 166.586,326.098 167.812 C 326.041 169.038,325.966 170.088,325.932 170.146 C 325.898 170.203,325.813 171.075,325.743 172.083 C 325.555 174.780,325.510 175.346,325.428 176.083 C 325.387 176.450,325.349 176.921,325.343 177.131 C 325.334 177.485,325.297 177.471,324.816 176.922 C 324.532 176.598,324.241 176.333,324.170 176.333 C 324.100 176.333,323.764 176.079,323.425 175.768 C 322.599 175.012,321.526 174.713,320.563 174.970 C 319.800 175.174,318.951 175.786,319.099 176.025 C 319.147 176.103,319.097 176.167,318.988 176.167 C 318.588 176.167,318.959 177.282,319.551 177.856 C 320.651 178.923,321.137 179.333,321.303 179.333 C 321.593 179.333,323.579 181.939,324.301 183.267 C 324.420 183.487,324.576 183.667,324.646 183.667 C 324.717 183.667,324.937 183.993,325.136 184.391 C 325.335 184.790,325.686 185.319,325.916 185.567 C 326.145 185.814,326.333 186.086,326.333 186.170 C 326.333 186.254,326.555 186.487,326.826 186.688 C 327.370 187.090,327.688 187.798,327.555 188.308 C 327.407 188.873,331.738 189.129,335.356 188.769 L 336.628 188.642 336.697 187.696 C 336.757 186.867,337.004 186.177,337.854 184.464 C 337.932 184.306,338.036 183.744,338.084 183.214 C 338.132 182.684,338.205 182.063,338.246 181.833 C 339.231 176.339,338.337 172.167,336.175 172.167 C 335.726 172.167,335.448 172.049,335.154 171.734 C 334.479 171.011,333.987 170.843,332.807 170.929 C 331.822 171.001,331.699 170.973,331.337 170.587 C 330.904 170.126,330.053 170.017,329.687 170.375 C 329.515 170.544,329.501 169.921,329.612 167.083 C 329.825 161.686,329.808 161.234,329.385 160.811 C 328.872 160.298,327.893 160.242,327.167 160.686 M266.466 168.248 C 267.270 168.622,267.333 168.690,267.164 169.005 C 266.901 169.497,266.605 169.563,266.023 169.262 C 265.052 168.760,263.532 169.000,262.619 169.801 C 262.347 170.040,262.291 170.032,261.960 169.701 L 261.599 169.339 262.070 168.847 C 263.135 167.735,264.860 167.500,266.466 168.248 M250.322 169.514 C 251.097 169.949,251.120 170.007,250.676 170.408 C 250.368 170.687,250.315 170.687,249.595 170.412 C 248.608 170.035,247.535 170.155,246.649 170.742 C 246.002 171.170,245.955 171.178,245.652 170.903 C 245.219 170.511,245.243 170.419,245.916 169.906 C 247.211 168.918,248.982 168.761,250.322 169.514 M274.174 170.999 C 276.261 171.579,277.051 174.851,275.414 176.139 C 274.767 176.648,274.751 176.630,274.738 175.353 C 274.723 173.952,274.157 172.665,273.162 171.765 C 272.408 171.084,272.393 171.052,272.792 170.948 C 273.287 170.819,273.561 170.829,274.174 170.999 M266.424 172.076 C 267.312 172.964,266.675 174.567,265.434 174.567 C 264.088 174.567,263.401 172.914,264.393 172.062 C 265.015 171.527,265.881 171.533,266.424 172.076 M248.731 172.493 C 249.672 172.850,249.912 174.113,249.179 174.846 C 247.933 176.093,245.926 174.465,246.934 173.025 C 247.365 172.411,248.011 172.219,248.731 172.493 M259.567 174.390 C 259.707 175.136,260.192 175.550,261.568 176.098 C 263.598 176.907,264.369 177.970,263.768 179.132 C 263.073 180.475,260.400 181.503,260.531 180.377 C 260.575 179.994,260.682 179.905,261.194 179.822 C 263.590 179.436,263.487 177.729,261.019 176.919 C 259.583 176.448,258.500 175.202,258.500 174.022 C 258.500 173.504,259.463 173.836,259.567 174.390 M233.440 178.542 C 232.977 179.474,232.866 181.358,233.225 182.216 C 233.565 183.029,233.241 183.059,232.405 182.292 C 230.995 180.997,231.686 177.833,233.379 177.833 L 233.792 177.833 233.440 178.542 M195.972 229.504 C 194.953 230.043,194.778 230.479,193.435 235.833 C 191.863 242.101,189.414 251.773,187.169 260.583 C 183.671 274.305,183.155 276.341,182.228 280.039 L 181.279 283.829 163.735 283.873 C 143.812 283.923,145.671 283.778,144.875 285.337 C 144.117 286.821,144.835 289.299,146.129 289.660 C 146.978 289.897,259.518 289.897,260.338 289.660 C 261.430 289.344,261.974 288.303,262.731 285.083 C 262.968 284.075,263.869 280.475,264.733 277.083 C 265.598 273.692,266.991 268.217,267.829 264.917 C 268.667 261.617,269.794 257.192,270.332 255.083 C 271.238 251.538,272.172 247.868,275.097 236.362 C 276.439 231.080,276.385 230.462,274.491 229.495 C 273.486 228.983,196.943 228.992,195.972 229.504 " stroke="none" fill="#d4e1ef" fill-rule="evenodd"></path><path id="path3" d="M156.686 109.746 C 155.307 110.214,154.697 110.334,153.686 110.335 C 151.302 110.337,147.545 111.151,145.250 112.162 C 143.649 112.867,141.646 113.888,141.176 114.239 C 140.860 114.474,140.528 114.667,140.437 114.667 C 140.346 114.667,140.117 114.807,139.927 114.979 C 139.738 115.151,139.208 115.496,138.750 115.746 C 138.292 115.995,137.792 116.311,137.640 116.446 C 137.487 116.581,137.262 116.707,137.140 116.725 C 137.017 116.743,136.551 116.962,136.103 117.213 C 133.531 118.651,129.902 118.779,128.000 117.499 C 127.382 117.083,124.835 115.816,124.432 115.725 C 122.829 115.360,121.235 115.565,120.704 116.205 C 119.778 117.320,119.168 120.535,119.493 122.583 C 119.777 124.371,121.171 128.620,121.685 129.265 C 121.765 129.365,121.781 129.497,121.721 129.557 C 121.660 129.617,121.689 129.667,121.785 129.667 C 121.881 129.667,122.120 130.041,122.317 130.499 C 122.514 130.957,122.882 131.575,123.134 131.874 C 123.386 132.172,123.816 132.748,124.088 133.154 C 124.740 134.124,127.498 136.854,127.700 136.729 C 127.787 136.676,128.021 136.776,128.221 136.953 C 129.383 137.982,132.109 139.600,133.954 140.355 L 135.324 140.917 135.225 141.467 L 135.126 142.018 136.438 141.915 C 137.160 141.859,137.902 141.783,138.087 141.746 C 138.272 141.710,139.097 141.789,139.920 141.922 C 145.414 142.814,154.489 141.404,160.236 138.766 C 164.602 136.762,167.670 133.356,168.430 129.670 C 168.675 128.481,168.774 128.193,168.882 128.347 C 168.909 128.385,169.311 128.867,169.775 129.417 C 173.540 133.877,174.189 136.721,173.026 143.667 C 172.742 145.362,172.318 148.175,172.084 149.917 C 171.849 151.658,171.548 153.796,171.414 154.667 C 171.280 155.537,171.017 157.391,170.830 158.785 C 170.643 160.180,170.383 161.623,170.252 161.994 C 169.975 162.779,169.969 162.776,170.882 162.301 C 171.268 162.100,171.682 161.919,171.802 161.898 C 171.922 161.877,172.846 161.010,173.855 159.972 L 175.690 158.083 174.826 157.994 C 172.694 157.772,172.582 157.202,173.420 150.858 C 174.636 141.648,174.858 140.099,174.995 139.845 C 175.302 139.277,175.997 138.802,176.650 138.714 C 177.453 138.607,177.423 138.800,177.165 135.333 C 176.401 125.099,172.205 118.325,164.667 115.160 C 164.162 114.948,163.337 114.389,162.833 113.917 C 162.329 113.444,161.589 112.842,161.189 112.577 C 160.253 111.959,160.502 111.892,162.152 112.319 C 172.484 114.998,178.065 123.575,178.805 137.913 L 178.917 140.077 180.083 140.707 C 181.191 141.306,182.628 142.611,183.436 143.752 L 183.788 144.250 184.048 143.333 C 185.047 139.798,185.251 138.154,185.243 133.667 C 185.236 130.012,185.195 129.408,184.852 127.917 C 184.640 127.000,184.404 125.940,184.326 125.560 C 184.247 125.181,183.955 124.386,183.675 123.794 C 183.395 123.202,183.167 122.675,183.167 122.624 C 183.167 122.378,181.795 120.189,181.422 119.838 C 181.190 119.620,181.000 119.385,181.000 119.316 C 181.000 119.246,180.419 118.627,179.708 117.940 C 177.686 115.984,177.332 115.667,177.173 115.667 C 177.091 115.667,176.925 115.569,176.804 115.449 C 176.490 115.138,173.981 113.500,173.819 113.500 C 173.744 113.500,173.350 113.275,172.943 113.000 C 172.535 112.725,172.146 112.500,172.077 112.500 C 172.008 112.500,171.382 112.224,170.684 111.887 C 169.987 111.550,169.042 111.094,168.583 110.873 C 165.917 109.588,164.622 109.290,161.417 109.223 L 158.417 109.160 156.686 109.746 M233.917 130.663 C 230.859 131.336,228.279 133.003,226.204 135.647 C 225.817 136.140,225.500 136.608,225.500 136.686 C 225.500 136.764,225.272 137.199,224.993 137.653 C 224.714 138.107,224.457 138.622,224.423 138.798 C 224.389 138.975,224.209 139.636,224.022 140.268 C 223.366 142.490,223.391 144.845,224.094 147.014 C 224.230 147.435,224.375 147.951,224.416 148.161 C 224.486 148.527,224.633 148.835,225.516 150.466 C 225.729 150.860,226.433 151.743,227.079 152.428 L 228.254 153.674 227.987 154.295 C 225.271 160.630,224.966 170.485,227.271 177.446 C 227.488 178.104,227.667 178.756,227.667 178.895 C 227.667 179.499,228.019 179.272,228.430 178.405 C 229.626 175.875,232.007 174.535,235.002 174.706 L 236.500 174.791 236.500 174.100 C 236.500 164.022,245.211 155.838,255.941 155.834 C 264.891 155.831,270.079 159.625,271.666 167.333 C 271.938 168.657,271.984 168.747,272.354 168.707 C 274.751 168.444,276.400 168.780,277.764 169.811 C 282.047 173.049,279.592 179.352,273.878 179.789 C 272.495 179.895,272.608 179.706,272.409 182.250 C 272.264 184.105,271.572 187.437,270.989 189.088 C 270.396 190.769,270.379 191.005,270.886 190.529 C 271.098 190.330,271.330 190.167,271.403 190.167 C 271.802 190.167,276.333 185.664,276.333 185.267 C 276.333 185.212,276.582 184.811,276.886 184.375 C 279.650 180.415,280.948 174.879,280.783 167.750 C 280.732 165.550,280.610 163.225,280.512 162.583 C 278.922 152.198,276.125 146.760,270.049 142.237 C 265.952 139.188,257.996 137.836,250.579 138.928 C 249.915 139.026,249.333 138.423,249.333 137.639 C 249.333 137.539,249.071 137.091,248.750 136.645 C 248.429 136.198,248.167 135.771,248.167 135.696 C 248.167 135.621,247.998 135.403,247.792 135.211 C 247.585 135.019,247.006 134.443,246.504 133.931 C 246.002 133.419,245.507 133.000,245.405 133.000 C 245.302 133.000,245.084 132.851,244.920 132.670 C 243.311 130.892,237.604 129.851,233.917 130.663 M160.261 141.100 C 160.200 141.342,160.176 141.565,160.207 141.596 C 160.534 141.923,166.265 142.127,166.565 141.823 C 166.605 141.783,166.601 141.563,166.557 141.333 L 166.477 140.917 164.280 140.917 C 163.072 140.917,161.698 140.859,161.227 140.788 C 160.397 140.664,160.368 140.673,160.261 141.100 M151.773 142.296 C 151.729 142.368,151.385 143.247,151.008 144.250 C 150.334 146.043,148.497 149.707,147.037 152.166 C 145.874 154.126,145.926 155.230,147.202 155.650 C 148.132 155.956,150.732 156.163,150.872 155.942 C 151.196 155.435,151.002 155.187,150.208 155.092 C 146.999 154.705,146.907 154.644,147.600 153.367 C 150.274 148.438,151.231 146.580,151.610 145.583 C 151.854 144.942,152.217 143.992,152.418 143.473 L 152.782 142.530 152.383 142.348 C 151.908 142.132,151.876 142.129,151.773 142.296 M142.916 143.569 C 141.836 144.649,142.496 146.333,144.000 146.333 C 144.727 146.333,145.221 146.006,145.496 145.343 C 145.934 144.285,145.166 143.167,144.000 143.167 C 143.501 143.167,143.210 143.275,142.916 143.569 M161.565 145.826 C 161.066 146.033,160.500 146.806,160.500 147.281 C 160.500 149.135,163.031 149.617,163.623 147.876 C 164.045 146.633,162.745 145.338,161.565 145.826 M133.125 153.081 C 132.429 153.693,132.519 154.206,133.766 156.750 C 135.757 160.814,140.387 164.333,143.740 164.333 C 143.907 164.333,144.333 164.596,144.689 164.917 C 146.148 166.235,148.122 165.311,147.963 163.385 C 147.859 162.135,147.362 161.667,146.141 161.667 C 145.250 161.667,144.167 162.435,144.167 163.067 C 144.167 163.840,140.357 162.420,138.393 160.915 C 136.035 159.108,133.833 155.331,133.833 153.093 C 133.833 152.568,133.710 152.565,133.125 153.081 M263.666 167.989 C 262.984 168.196,262.271 168.608,261.918 168.999 L 261.586 169.365 261.972 169.678 C 262.353 169.986,262.364 169.985,262.804 169.575 C 263.630 168.805,265.348 168.645,266.273 169.250 C 266.813 169.604,267.434 168.941,266.917 168.563 C 266.151 168.003,264.550 167.720,263.666 167.989 M246.750 169.482 C 246.383 169.651,245.909 169.979,245.696 170.210 L 245.309 170.631 245.681 170.891 C 246.027 171.134,246.085 171.124,246.522 170.757 C 247.479 169.952,248.711 169.836,249.884 170.443 C 250.357 170.687,250.808 170.452,250.828 169.950 C 250.854 169.286,247.908 168.947,246.750 169.482 M264.467 172.174 C 263.341 173.301,264.504 174.953,265.989 174.338 C 266.907 173.958,267.082 172.889,266.346 172.154 C 265.707 171.515,265.120 171.521,264.467 172.174 M247.196 172.886 C 246.722 173.390,246.707 174.374,247.167 174.833 C 248.005 175.672,249.500 175.005,249.500 173.793 C 249.500 172.647,247.982 172.049,247.196 172.886 M258.734 174.522 C 258.913 175.639,259.486 176.227,260.917 176.759 C 262.713 177.428,263.295 177.975,263.009 178.727 C 262.834 179.187,261.580 180.000,261.045 180.000 C 260.689 180.000,260.425 180.410,260.599 180.691 C 260.851 181.100,262.716 180.302,263.396 179.495 C 264.478 178.208,263.804 177.091,261.347 176.099 C 260.028 175.566,259.713 175.290,259.493 174.474 C 259.229 173.493,258.576 173.535,258.734 174.522 M238.367 186.085 C 236.983 186.948,235.163 187.186,233.167 186.764 C 231.780 186.471,231.770 186.401,233.349 187.934 C 235.248 189.776,235.463 189.968,235.850 190.176 C 236.039 190.277,236.339 190.485,236.517 190.638 C 237.625 191.592,240.734 193.048,243.500 193.908 C 245.666 194.582,245.929 194.567,245.866 193.774 C 245.822 193.227,245.661 192.992,244.782 192.191 C 242.728 190.319,240.887 188.118,239.890 186.343 C 239.630 185.880,239.379 185.508,239.333 185.517 C 239.287 185.526,238.853 185.782,238.367 186.085 M110.217 228.167 C 110.217 228.671,110.248 228.877,110.286 228.625 C 110.324 228.373,110.324 227.960,110.286 227.708 C 110.248 227.456,110.217 227.662,110.217 228.167 M109.915 231.900 C 109.789 234.765,109.879 235.976,110.060 233.833 C 110.216 231.984,110.266 229.166,110.143 229.167 C 110.084 229.167,109.981 230.397,109.915 231.900 M102.167 240.890 C 99.096 242.744,95.083 245.168,93.250 246.276 C 91.417 247.384,88.304 249.265,86.333 250.456 C 78.742 255.043,77.379 255.893,76.208 256.770 C 75.079 257.616,74.757 258.000,75.178 258.000 C 75.276 258.000,75.601 257.813,75.902 257.583 C 76.202 257.354,76.498 257.167,76.560 257.167 C 76.675 257.167,78.046 256.312,79.277 255.473 C 79.659 255.213,80.013 255.000,80.065 255.000 C 80.116 255.000,80.912 254.512,81.833 253.917 C 82.754 253.321,83.550 252.833,83.602 252.833 C 83.653 252.833,84.008 252.619,84.389 252.357 C 85.000 251.938,86.365 251.071,87.183 250.583 C 87.336 250.492,87.997 250.079,88.651 249.667 C 89.305 249.254,90.091 248.767,90.398 248.583 C 92.340 247.422,93.093 246.949,93.167 246.846 C 93.248 246.731,94.667 245.864,95.685 245.307 C 95.962 245.155,96.316 244.923,96.470 244.791 C 96.624 244.660,97.189 244.296,97.726 243.984 C 98.263 243.672,98.874 243.304,99.083 243.167 C 99.293 243.029,99.903 242.660,100.440 242.346 C 100.977 242.032,101.629 241.601,101.888 241.388 C 102.147 241.174,102.428 241.000,102.512 241.000 C 102.597 241.000,103.031 240.737,103.478 240.417 C 103.924 240.096,104.344 239.833,104.409 239.833 C 104.475 239.833,104.841 239.623,105.223 239.365 C 107.116 238.087,107.522 237.833,107.672 237.833 C 107.761 237.833,107.833 237.758,107.833 237.667 C 107.833 237.447,108.439 237.102,102.167 240.890 " stroke="none" fill="#596783" fill-rule="evenodd"></path><path id="path4" d="M166.744 48.091 C 165.831 48.406,164.971 48.667,164.833 48.671 C 163.991 48.696,162.046 49.758,162.181 50.120 L 162.319 50.490 163.618 50.054 C 164.332 49.814,165.517 49.406,166.250 49.147 C 166.983 48.888,167.865 48.628,168.208 48.569 C 168.655 48.493,168.833 48.379,168.833 48.169 C 168.833 47.514,168.460 47.500,166.744 48.091 M154.687 52.437 C 154.010 52.746,153.387 53.000,153.301 53.000 C 153.216 53.000,152.757 53.181,152.281 53.401 C 151.806 53.622,151.025 53.968,150.546 54.170 C 149.784 54.492,149.696 54.577,149.843 54.852 C 150.082 55.298,150.492 55.246,151.872 54.595 C 153.436 53.857,155.923 52.833,156.154 52.833 C 156.401 52.833,156.380 52.245,156.125 52.040 C 155.979 51.923,155.550 52.041,154.687 52.437 M143.242 57.482 C 143.155 57.564,142.671 57.833,142.167 58.080 C 141.662 58.326,141.106 58.605,140.930 58.699 C 140.754 58.794,140.042 59.169,139.347 59.533 C 137.797 60.345,137.779 60.362,138.057 60.742 C 138.286 61.056,140.590 60.196,140.910 59.678 C 140.970 59.580,141.124 59.500,141.251 59.500 C 141.378 59.500,141.930 59.237,142.477 58.917 C 143.025 58.596,143.582 58.333,143.716 58.333 C 144.064 58.333,144.357 57.922,144.235 57.604 C 144.123 57.314,143.502 57.237,143.242 57.482 M130.580 64.497 C 126.417 66.981,126.374 67.014,126.710 67.493 C 126.939 67.820,126.986 67.803,128.476 66.831 C 129.317 66.282,130.054 65.833,130.112 65.833 C 130.171 65.833,130.451 65.657,130.734 65.442 C 131.018 65.227,131.538 64.916,131.890 64.749 C 132.624 64.403,132.814 64.076,132.477 63.739 C 132.275 63.537,132.010 63.643,130.580 64.497 M120.167 71.328 C 119.662 71.692,118.875 72.251,118.417 72.572 C 116.275 74.070,115.651 74.659,115.836 75.005 C 116.086 75.472,116.655 75.158,119.083 73.212 C 119.175 73.138,119.756 72.719,120.375 72.281 C 121.520 71.469,121.577 71.394,121.399 70.930 C 121.258 70.564,121.201 70.583,120.167 71.328 M97.500 76.361 C 97.079 76.536,96.087 76.878,84.500 80.837 C 80.971 82.042,75.158 84.029,71.583 85.250 C 68.008 86.472,63.283 88.087,61.083 88.838 C 56.427 90.428,56.931 90.173,57.200 90.798 L 57.417 91.302 63.750 89.137 C 67.233 87.947,71.471 86.496,73.167 85.915 C 74.862 85.333,81.125 83.194,87.083 81.161 C 99.588 76.896,98.535 77.317,98.308 76.666 C 98.117 76.117,98.101 76.111,97.500 76.361 M110.731 79.095 C 110.787 79.241,110.833 79.392,110.833 79.430 C 110.833 79.469,110.908 79.500,111.000 79.500 C 111.271 79.500,111.190 79.045,110.898 78.933 C 110.702 78.857,110.657 78.901,110.731 79.095 M95.500 88.479 C 92.154 89.649,86.904 91.477,83.833 92.540 C 80.762 93.604,75.400 95.461,71.917 96.667 C 68.433 97.873,64.697 99.166,63.614 99.540 C 61.692 100.203,61.646 100.230,61.750 100.651 C 61.924 101.354,61.939 101.351,65.583 100.076 C 67.508 99.402,71.821 97.905,75.167 96.749 C 84.416 93.553,97.815 88.915,102.119 87.419 C 102.379 87.328,102.060 86.329,101.775 86.343 C 101.670 86.348,98.846 87.310,95.500 88.479 M101.750 98.484 C 100.283 99.016,96.571 100.370,93.500 101.492 C 90.429 102.614,85.892 104.271,83.417 105.174 C 80.942 106.077,76.742 107.612,74.083 108.586 C 71.425 109.560,68.406 110.659,67.375 111.029 C 65.441 111.722,65.223 111.920,65.708 112.533 C 65.894 112.767,66.308 112.652,69.500 111.481 C 71.471 110.758,74.921 109.496,77.167 108.677 C 79.412 107.858,84.775 105.901,89.083 104.329 C 98.153 101.018,104.060 98.864,104.696 98.636 C 105.103 98.490,105.126 98.434,104.971 97.988 C 104.754 97.366,104.884 97.346,101.750 98.484 M74.045 122.451 C 73.507 122.554,72.645 123.656,72.703 124.165 C 72.786 124.898,73.275 124.767,73.742 123.886 C 73.976 123.444,74.289 122.915,74.437 122.708 C 74.586 122.502,74.642 122.344,74.562 122.356 C 74.482 122.369,74.249 122.411,74.045 122.451 M68.334 132.292 C 67.677 133.644,66.987 135.041,66.802 135.396 C 66.527 135.925,66.507 136.069,66.691 136.188 C 67.223 136.530,67.326 136.395,68.731 133.515 C 69.062 132.836,69.333 132.221,69.333 132.148 C 69.333 132.075,69.565 131.622,69.848 131.141 C 70.333 130.319,70.346 130.255,70.067 130.050 C 69.594 129.705,69.589 129.712,68.334 132.292 M165.245 135.375 L 164.250 136.417 165.292 135.422 C 165.865 134.875,166.333 134.406,166.333 134.380 C 166.333 134.257,166.169 134.407,165.245 135.375 M173.548 138.583 C 173.549 139.042,173.581 139.209,173.620 138.956 C 173.658 138.703,173.657 138.328,173.617 138.123 C 173.578 137.918,173.546 138.125,173.548 138.583 M157.333 139.917 C 157.012 140.040,156.862 140.144,157.000 140.146 C 157.137 140.149,157.475 140.049,157.750 139.923 C 158.394 139.628,158.094 139.624,157.333 139.917 M153.500 141.000 C 153.170 141.106,153.153 141.133,153.417 141.133 C 153.600 141.133,153.938 141.073,154.167 141.000 C 154.497 140.894,154.514 140.867,154.250 140.867 C 154.067 140.867,153.729 140.927,153.500 141.000 M163.042 140.956 C 163.569 140.990,164.431 140.990,164.958 140.956 C 165.485 140.923,165.054 140.896,164.000 140.896 C 162.946 140.896,162.515 140.923,163.042 140.956 M139.000 141.951 C 139.633 142.121,140.975 142.213,143.333 142.247 L 146.750 142.296 143.417 142.159 C 141.583 142.083,139.746 141.945,139.333 141.851 C 138.202 141.595,137.954 141.669,139.000 141.951 M136.375 141.948 C 136.535 141.990,136.798 141.990,136.958 141.948 C 137.119 141.906,136.987 141.872,136.667 141.872 C 136.346 141.872,136.215 141.906,136.375 141.948 M147.583 142.000 C 146.783 142.110,146.777 142.115,147.417 142.128 C 147.783 142.136,148.421 142.082,148.833 142.009 C 149.821 141.833,148.850 141.826,147.583 142.000 M63.409 143.458 C 62.900 144.638,62.766 145.171,62.711 146.250 C 62.632 147.789,62.733 147.699,63.563 145.500 C 63.822 144.813,64.224 143.827,64.455 143.311 C 64.892 142.337,64.863 142.000,64.343 142.000 C 64.121 142.000,63.871 142.389,63.409 143.458 M151.772 142.131 C 151.728 142.203,151.817 142.267,151.971 142.274 C 152.124 142.280,152.400 142.339,152.583 142.404 C 152.799 142.481,152.770 142.433,152.500 142.267 C 152.021 141.974,151.885 141.948,151.772 142.131 M151.185 143.352 C 151.083 143.646,151.028 143.917,151.063 143.952 C 151.099 143.988,151.212 143.776,151.315 143.481 C 151.417 143.187,151.472 142.917,151.437 142.881 C 151.401 142.845,151.288 143.057,151.185 143.352 M143.708 146.448 C 143.869 146.490,144.131 146.490,144.292 146.448 C 144.452 146.406,144.321 146.372,144.000 146.372 C 143.679 146.372,143.548 146.406,143.708 146.448 M148.917 148.500 C 148.774 148.775,148.696 149.000,148.741 149.000 C 148.787 149.000,148.941 148.775,149.083 148.500 C 149.226 148.225,149.304 148.000,149.259 148.000 C 149.213 148.000,149.059 148.225,148.917 148.500 M147.833 150.500 C 147.646 150.867,147.531 151.167,147.577 151.167 C 147.622 151.167,147.813 150.867,148.000 150.500 C 148.187 150.133,148.303 149.833,148.257 149.833 C 148.211 149.833,148.020 150.133,147.833 150.500 M146.000 154.323 C 146.000 154.593,146.059 154.850,146.132 154.895 C 146.204 154.940,146.234 154.719,146.197 154.405 C 146.115 153.705,146.000 153.657,146.000 154.323 M148.960 154.951 C 149.168 154.991,149.468 154.990,149.627 154.948 C 149.786 154.906,149.617 154.874,149.250 154.875 C 148.883 154.877,148.753 154.911,148.960 154.951 M150.615 155.108 C 150.815 155.152,151.017 155.314,151.064 155.469 C 151.124 155.671,151.138 155.657,151.114 155.417 C 151.091 155.190,150.947 155.075,150.665 155.056 C 150.317 155.033,150.309 155.042,150.615 155.108 M254.958 155.957 C 255.531 155.989,256.469 155.989,257.042 155.957 C 257.615 155.924,257.146 155.898,256.000 155.898 C 254.854 155.898,254.385 155.924,254.958 155.957 M149.460 156.118 C 149.668 156.158,149.968 156.156,150.127 156.115 C 150.286 156.073,150.117 156.040,149.750 156.042 C 149.383 156.044,149.253 156.078,149.460 156.118 M259.042 156.115 C 259.202 156.157,259.465 156.157,259.625 156.115 C 259.785 156.073,259.654 156.039,259.333 156.039 C 259.012 156.039,258.881 156.073,259.042 156.115 M241.744 161.542 L 240.917 162.417 241.792 161.590 C 242.273 161.135,242.667 160.741,242.667 160.715 C 242.667 160.590,242.512 160.729,241.744 161.542 M145.792 161.618 C 145.998 161.657,146.335 161.657,146.542 161.618 C 146.748 161.578,146.579 161.545,146.167 161.545 C 145.754 161.545,145.585 161.578,145.792 161.618 M148.042 163.583 C 148.044 163.950,148.078 164.080,148.118 163.873 C 148.158 163.666,148.156 163.366,148.115 163.206 C 148.073 163.047,148.040 163.217,148.042 163.583 M238.750 165.500 C 238.608 165.775,238.529 166.000,238.575 166.000 C 238.621 166.000,238.774 165.775,238.917 165.500 C 239.059 165.225,239.138 165.000,239.092 165.000 C 239.046 165.000,238.892 165.225,238.750 165.500 M273.708 168.615 C 273.869 168.657,274.131 168.657,274.292 168.615 C 274.452 168.573,274.321 168.539,274.000 168.539 C 273.679 168.539,273.548 168.573,273.708 168.615 M264.460 168.951 C 264.668 168.991,264.968 168.990,265.127 168.948 C 265.286 168.906,265.117 168.874,264.750 168.875 C 264.383 168.877,264.253 168.911,264.460 168.951 M248.044 169.120 C 248.297 169.158,248.672 169.157,248.877 169.117 C 249.082 169.078,248.875 169.046,248.417 169.048 C 247.958 169.049,247.791 169.081,248.044 169.120 M248.042 170.115 C 248.202 170.157,248.465 170.157,248.625 170.115 C 248.785 170.073,248.654 170.039,248.333 170.039 C 248.012 170.039,247.881 170.073,248.042 170.115 M236.709 171.917 C 236.711 172.283,236.745 172.414,236.785 172.206 C 236.824 171.999,236.823 171.699,236.781 171.540 C 236.739 171.380,236.707 171.550,236.709 171.917 M236.500 173.819 C 236.500 174.452,236.425 174.836,236.292 174.890 C 236.167 174.940,236.201 174.979,236.375 174.987 C 236.624 174.998,236.667 174.842,236.667 173.917 C 236.667 173.321,236.629 172.833,236.583 172.833 C 236.537 172.833,236.500 173.277,236.500 173.819 M246.705 173.833 C 246.705 174.154,246.740 174.285,246.782 174.125 C 246.823 173.965,246.823 173.702,246.782 173.542 C 246.740 173.381,246.705 173.512,246.705 173.833 M279.879 174.000 C 279.879 174.412,279.911 174.581,279.951 174.375 C 279.991 174.169,279.991 173.831,279.951 173.625 C 279.911 173.419,279.879 173.588,279.879 174.000 M247.875 175.282 C 248.035 175.323,248.298 175.323,248.458 175.282 C 248.619 175.240,248.487 175.205,248.167 175.205 C 247.846 175.205,247.715 175.240,247.875 175.282 M229.521 176.746 C 229.143 177.157,228.833 177.544,228.833 177.607 C 228.833 177.671,228.858 177.691,228.888 177.653 C 228.918 177.615,229.266 177.227,229.659 176.792 C 230.053 176.356,230.338 176.000,230.292 176.000 C 230.247 176.000,229.900 176.336,229.521 176.746 M262.773 177.917 C 263.158 178.575,263.167 178.585,263.167 178.380 C 263.167 178.283,263.012 178.027,262.823 177.810 L 262.480 177.417 262.773 177.917 M272.519 180.042 C 272.533 180.311,272.560 180.337,272.613 180.133 C 272.670 179.918,272.916 179.835,273.636 179.790 L 274.583 179.730 273.542 179.698 C 272.558 179.668,272.501 179.688,272.519 180.042 M260.611 179.944 C 260.550 180.006,260.501 180.137,260.503 180.236 C 260.504 180.356,260.546 180.352,260.628 180.225 C 260.695 180.120,260.938 179.999,261.167 179.956 L 261.583 179.879 261.153 179.856 C 260.916 179.844,260.672 179.883,260.611 179.944 M234.461 186.954 C 234.761 186.991,235.211 186.990,235.461 186.952 C 235.712 186.914,235.467 186.884,234.917 186.885 C 234.367 186.886,234.162 186.917,234.461 186.954 M244.500 191.885 C 244.500 191.914,244.744 192.158,245.042 192.427 L 245.583 192.917 245.094 192.375 C 244.638 191.870,244.500 191.757,244.500 191.885 M245.814 193.370 C 245.890 193.833,245.914 193.856,245.966 193.522 C 246.000 193.306,245.960 193.060,245.876 192.976 C 245.783 192.883,245.759 193.039,245.814 193.370 M201.792 229.125 C 204.381 229.151,208.619 229.151,211.208 229.125 C 213.798 229.099,211.679 229.078,206.500 229.078 C 201.321 229.078,199.202 229.099,201.792 229.125 M155.292 283.792 C 160.081 283.816,167.919 283.816,172.708 283.792 C 177.498 283.767,173.579 283.747,164.000 283.747 C 154.421 283.747,150.502 283.767,155.292 283.792 M256.708 289.782 C 256.869 289.823,257.131 289.823,257.292 289.782 C 257.452 289.740,257.321 289.705,257.000 289.705 C 256.679 289.705,256.548 289.740,256.708 289.782 " stroke="none" fill="#8494bc" fill-rule="evenodd"></path></g></svg>